M48
;Layer_Color=9474304
;FILE_FORMAT=2:3
INCH,LZ
;TYPE=PLATED
T1F00S00C0.010
T2F00S00C0.015
T3F00S00C0.020
T4F00S00C0.028
T5F00S00C0.039
T6F00S00C0.055
T7F00S00C0.075
T8F00S00C0.126
;TYPE=NON_PLATED
T9F00S00C0.130
%
T01
X00451Y00304
X0049Y00326
X00455Y00391
X00528Y00591
X00562
X00625Y00681
X0055Y00751
X00705Y00776
X0071Y00926
X00765Y00881
X0092Y00836
X009Y00801
X00906Y01051
X00905Y01161
X00835Y01326
X0075Y01411
X0044Y01261
X00475Y00856
X00737Y00556
X00942Y00561
X00976
X0087Y00391
X0081Y0039
X00835Y00265
X0091Y00326
X00925Y00211
X00705Y00286
X0067Y00266
X01015Y00216
X01085Y00266
X0117Y00256
X01208
X01245
X013Y00336
X01335
X01405Y00321
X0141Y00407
X01375Y00531
X01315
X0127Y00521
X0128Y00481
X01207Y00459
X0117
X01115Y00486
X01055Y00476
X0105Y00401
Y00326
X0112Y00366
X01175Y00116
X0121
X01175Y00076
X01415Y00106
X01775Y00126
X01815
X01872Y00121
X0188Y00071
X0185Y00331
X0181
X01775
X0175Y00401
Y00456
Y00536
X01815Y00546
X0185
Y00741
Y00781
X0176Y00756
X01753Y00704
X01765Y00991
X018Y01006
X01825Y00986
X0188Y00991
X0181Y01103
X01795Y01146
X0182Y01331
X0183Y01401
X01855Y01431
X018Y01456
X0196Y01236
X02045Y01287
Y01321
X0211Y01206
X02205Y01251
X02255
X0232Y01287
Y01321
X02365Y01206
X02461Y01221
X025Y01191
X02535Y01216
X02285Y01151
X01375Y01116
X01315
X0126Y01076
X0125Y00935
X0124Y00871
X01385Y00866
X01375Y00921
X0134
X01315Y00726
X01375
X01035Y00826
X0106Y00856
X0103Y00901
X01005Y01051
X00995Y01091
X0101Y01126
X01145Y00966
X012Y01435
X0269Y01461
X02685Y01332
X0263Y01336
X02605Y01311
X02685Y01212
Y01152
Y01092
Y01032
Y00972
X02785Y00886
X0283Y0088
X02815Y00796
X0273Y00791
X02775Y00735
X02815Y0064
X02885Y00761
X0295Y00841
X02996Y00682
X03065Y00746
X0328Y00756
X03275Y00718
X0328Y00681
X03305Y00631
Y00736
X03375Y00776
X0344Y00876
X03225Y00956
X0337Y00591
X03445Y00536
X0344Y00491
X03445Y00456
X03435Y00426
X03425Y0039
X0358Y00401
X03582Y00262
X03565Y00231
X0353Y00271
X03585Y00164
X03435
X0343Y00076
X0334Y0013
X03335Y00195
X033Y00306
X03183Y00152
X0312Y0018
X03013Y00152
X02965Y0013
X0283Y00125
X038Y00345
X03805Y00376
Y00436
Y00496
Y00556
Y00636
Y00696
X038Y00756
X02895Y01321
X02905Y01488
X0269Y01512
X0274Y01591
Y01651
X0275Y01751
X027Y01791
X02685Y01851
Y01911
Y01971
Y02031
Y02151
Y02271
Y02331
Y02391
Y02451
Y02511
X0282Y02625
Y02726
Y02926
X0313Y02758
X02905Y02411
X0284Y01791
X0288Y01711
X0313Y01835
X02535Y01646
X0249Y01661
X02125Y02141
X0208Y02146
X02095Y02176
X01975Y02286
X01965Y02316
X01925
X01835
Y02251
X01695Y02281
Y02181
Y02126
Y02071
X01715Y02001
Y01836
X0144Y01765
X0139Y0169
X01345Y01735
Y01806
Y0185
X012Y0172
X01065Y01821
X00997Y01825
X01065Y01536
X0138Y0152
X01385Y0158
X01525Y02456
X0155Y02481
X01795Y02406
X0196Y02471
X01993Y02516
X0207Y02506
X02119Y0253
X02095Y02556
X0211Y02661
X02207Y02643
X02207Y02532
X02215Y02481
Y02426
X02235
X0225Y02411
X02075Y02746
X0189Y02715
X01765Y02861
X0178Y02896
X01835Y03021
X0207Y03016
X02298Y03021
Y02986
Y02951
Y02916
Y02881
X02435Y03011
X00805
X0074Y02926
X00645Y02966
X00656Y02845
X0053Y02766
X0044Y02841
X00387Y02823
X00303Y02783
X00302Y02878
X005Y02526
X0056
X0062
X0068
X00661Y02567
X00705Y02686
X00786Y02689
X00865Y02754
X00904Y02912
Y02312
X00865Y02156
X00781Y02134
X0067Y0224
X0053Y02156
X0055Y02071
X0059Y02021
X00455Y01921
X00245Y01971
X003Y02176
Y02276
X00375Y0222
X0043Y02221
X0044Y01606
X0039Y01566
X0083Y01606
X00755Y01696
X0068Y03136
X00661Y03162
X0056Y03136
X005
X00555Y03276
X0053Y03356
X0043Y03426
X00385Y03421
X003Y03376
Y03476
X00656Y03435
X0071Y03281
X00786Y03294
X00865Y03351
X00904Y03502
Y03569
X0085Y03724
X0068Y03736
X0062
X0056
X005
X00585Y04411
X00685Y04446
X00645Y04546
Y04581
X00585Y04546
X0041Y04441
X0036
X0031
X00155Y04461
X0013Y04516
X0124Y04312
X01265Y04336
X01325Y04346
X01345Y04321
X0128Y04076
X0126Y04066
X01245Y04051
X0125Y04031
X0123Y04036
X01215Y0402
X0122Y04
X012Y04005
X01185Y0399
X01155Y03776
Y03716
X01285Y03671
X014Y03636
X0143Y03616
X0144Y03646
X0152Y03636
X01495Y03606
X01415Y03561
X0143Y03531
X01426Y03496
X0141Y03461
X014Y03426
X0143Y03411
X0146Y03396
Y03361
X0144Y03336
X0143Y03266
X0141Y03241
X014Y03208
Y03287
X0114Y03286
Y03251
X0119Y03146
X0115Y03411
X0112Y03446
X0134Y03791
X0138Y03826
X0147Y03736
X01509Y03886
X01535Y03866
X01585Y03881
X01558Y03911
X0189Y03861
X01922Y03846
X02Y03891
X0206
X0208Y03841
X0218Y03925
X02205Y03961
X02198Y04011
X02194Y04072
X0227Y04166
X0242
X02345Y04251
X02325Y04346
X02255Y04331
X02205
X02165
X02125
X02145Y04251
X0204Y0429
X0205Y04386
X0203Y04566
X01975Y04175
X02087Y04149
X01935Y04006
X0192Y04021
X0189Y04011
Y03741
X01885Y03701
X0185Y03706
X01825Y03726
X0174Y03681
X0175Y03436
X0173Y03406
X0171Y03376
X0173Y03346
X0175Y03316
X01835Y03111
X0185Y03065
X01965Y03076
X01985Y03101
X01995Y03141
X02085Y03126
X0211Y03151
X0209Y03206
X02115Y03231
X02095Y03256
X02085Y03287
X02046Y03326
X0208Y03361
X02115Y03356
X0212Y03405
X0224Y03406
Y03371
X02234Y03445
X02305Y03555
X0202Y03561
X02035Y03596
X0206Y03621
X02105Y03666
X02015Y03466
X01995Y03431
X01906Y0316
X0197Y03026
X0229Y0315
X02405Y03111
X02535
X0254Y03181
Y03241
X02228Y03248
X0238Y03951
Y03986
X02435Y03971
X0249
X02545
X026
X02685
Y03911
Y03851
Y03766
Y03701
Y03646
Y03581
Y03521
Y03401
Y03281
Y03221
Y03161
Y03101
Y03041
X02825
X02895Y03334
X02845Y03816
X02789Y03814
X02685Y04031
Y04091
Y04211
X02655Y04286
X0265Y04351
Y04386
Y04421
X02685Y04451
Y04391
Y04331
Y04511
Y04571
X0317
X02891Y04257
X0257Y04166
X026Y04126
X02565Y04022
X0313Y03681
X02255Y04726
X02205
X02165Y04786
X02135Y04761
X0203Y04801
Y04706
X02085Y04877
X02115Y04955
X0209Y05005
X02095Y05046
Y05081
X02145Y05151
X0198Y05176
X01962Y05518
X01865Y04886
X0176Y04921
X017
X0164
X0158
X0152
X0108Y04741
X01079Y05521
X02295Y05081
X02325Y04951
X0225Y04966
Y04851
X02375Y04866
X0237Y04903
X00705Y04716
X0031Y04727
X0013Y04646
T02
X00055Y00371
X00315Y00431
X00765Y00414
X00745Y00501
X0077Y00681
X00834Y00656
X00907Y00885
X0088Y01126
X0086Y0125
Y01276
X00795Y01296
X0075Y01361
X0062Y01146
Y01001
X00315Y01006
Y01066
Y01126
X00055Y01066
X0101Y01166
X01025Y01311
X0106Y01361
X0115Y01306
X01385Y01401
X016Y01206
X0154Y00956
Y00656
X01605Y00456
X0154Y00256
X01103Y00581
X01064
X0125Y00761
X0123Y00905
X02764Y00481
X02915Y0059
X03052Y00589
X03236Y00429
X03335Y0025
X03236Y00124
X031Y0009
X034Y01387
X03405Y01727
X03315Y01666
X0331Y01806
X03275
X0324
X03195Y01766
X03105Y01623
X0306
X03015
Y01575
X0306
X03105
Y01528
X0306
X03015
Y01481
X0306
X03105
Y02404
X0306
X03015
Y02451
X0306
X03105
Y02498
X0306
X03015
Y02546
X0306
X03105
X03195Y02686
X0324Y02726
X03275
X0331
X03315Y02586
X03405Y0265
X034Y0231
X02405Y02446
X02255Y02376
Y02351
X02135Y02365
X0212Y02345
X01989Y02194
Y02147
X01941
Y02194
X01851Y02081
X01821Y01972
X01852Y01877
X018Y01816
X0207Y01916
X02204Y01984
X0222Y02051
Y02106
X02325Y02111
Y02086
Y02061
Y02036
Y02011
X0232Y01921
X02295
Y01896
Y01871
Y01846
Y01821
Y01796
X0232
Y01821
Y01846
Y01871
Y01896
X02245Y01796
X0222
Y01746
Y01721
Y01696
Y01671
X02465Y01691
Y01716
Y01741
Y01766
X02475Y01791
Y01816
X02545Y01956
Y01981
Y02006
Y02031
X0237Y02131
X01696Y02236
X0148Y02456
X0152Y02556
X01545
X0155Y02796
Y02821
X01525
Y02796
X01367Y02817
X01375Y02931
X0143Y03021
X0115Y02986
X01235Y02891
Y02831
X0108
X0101Y02851
X0102Y02746
X01045Y02745
X0102Y02541
X00995
X01145Y02501
Y02475
Y0245
X01175Y02396
X0124Y02426
X01235Y01861
X01125Y01816
X0106Y01646
X01125Y01531
X01235Y01576
X01385Y01646
X01485Y01501
Y01476
X01965Y02806
Y02871
X02115Y02875
Y029
Y02831
Y02806
X0056Y02791
X00525Y02681
X0074Y02396
X00775Y02411
X00655Y02291
X0056Y02181
X0071Y02086
X0096Y02241
X00975Y02261
Y02286
X00785Y01581
X0064
X0042Y01536
X0034
Y01876
X0042
X0056Y03381
X00734Y03514
X00726Y03601
X00965Y03656
X00955Y03436
X0095Y04011
X009
X0079
Y03986
Y04036
Y04061
Y04086
Y04111
Y04136
Y04161
Y04186
X0081Y04206
X00835
X0086
X0096Y04211
X00785Y04331
X0068Y04286
X0066Y04225
Y042
Y04175
Y0415
Y04045
Y0402
Y03995
Y0397
X00495Y03936
X0041Y04005
Y0403
Y04055
X00425Y0378
X0045
Y03755
X00425
X00495Y04291
X0051Y0433
X00535
Y04355
X0051
X0069Y04581
X01005Y04211
X01025Y04191
X0104Y04171
Y04146
Y04121
Y04096
Y04071
Y04046
Y04021
X0109Y03951
X0125Y04151
X01365Y04196
X0139
X01415
X01575Y04201
X01595Y04181
X0162
X0146Y03991
X01525Y03516
X01575Y03201
X01245Y03151
X0115Y03201
Y03326
Y03371
X0116Y03566
X0108Y03511
X01055
X0099Y03656
X0229Y03846
Y03911
X0241Y04336
X0242Y04376
X0238Y03371
Y03316
X02385Y03076
X03015Y03327
X0306
X03105
Y03374
X0306
X03015
Y03421
X0306
X03105
Y03469
X0306
X03015
X03195Y03611
X0324Y03651
X03275
X0331
X03315Y03511
X03405Y03573
X034Y03233
Y04156
X03405Y04496
X03315Y04431
X0331Y04571
X03275
X0324
X03195Y04531
X0302Y04561
X03015Y04392
X0306
X03105
Y04344
X0306
X03015
Y04297
X0306
X03105
Y0425
X0306
X03015
X02565Y04411
X02021Y05313
X01962
X01903
Y05376
X01962
X02021
X02085Y05526
X02035Y05671
X01915
X0183Y05476
X0168
X014Y05471
X0136
X0132
X0128
X013Y05436
X0134
X0138
X01005Y05641
X01105Y05066
X0114
Y05026
X01105
Y04986
Y04951
X0114
X01175
Y04986
X0121
X01245
Y04951
X0121
X0114Y04986
X01005Y04871
X00925Y04921
X009
X00875
X0084Y0492
X00787Y04761
X0062Y04741
X0046Y04731
X0041
X0026
X0019Y04721
X00782Y05531
X00875Y05691
X009
X00925
T03
X00335Y00666
Y00751
X00455Y00946
X00385Y01101
X00755Y00986
X00815
X01925Y00046
X02645
X03455Y00986
X03475Y0111
X03525
X03575
X0336Y01197
Y01247
X03305
Y01197
X0336Y01302
Y01352
X03785Y00986
Y00951
X03865Y00816
X03585Y01497
X03575Y01935
X03525
X03475
Y02025
X03525
X03575
X0336Y0212
Y0217
X03305
Y0212
X0336Y02225
Y02275
X03585Y0242
X03575Y0286
X03525
X03475
Y0295
X03525
X03575
X01435Y02081
X0141Y01886
X01165Y01911
X01125Y02291
X00985Y0248
X00285Y02576
Y03181
Y03746
X03475Y0378
X03525
X03575
Y03875
X03525
X03475
X0336Y03966
Y04016
Y04071
Y04121
X03305Y04016
Y03966
X03585Y04266
Y03343
X0336Y03198
Y03148
Y03093
Y03043
X03305
Y03093
X03475Y04701
X03525
X03575
X0297Y04716
Y04681
Y04751
Y04786
Y04821
X02915Y04661
X0288
X02845
X0281
X02775
X0274
X02705
X027Y04911
X02665
X0263
X02595
X0256
X02735
X0277
X0303Y05101
Y05136
X03065
X031
Y05101
X03065
Y05221
X031
Y05256
X03065
X0303
Y05221
Y0552
X02995
X02965
X0293
X02895
X0286
X02825
X0279
X02755
X0272
X02735Y0558
X0277
X02805
X0284
X0287
X02905
X0294
X02975
X0301
X03045
X02615Y05666
X0258
Y05701
X02615
X0261Y05866
X02645
X0268
Y05901
X02645
X0261
X02575
Y05866
Y06006
Y06041
X0261
X02645
X0268
Y06006
X02645
X0261
X03675Y05991
X03705
X0374
X03775
X0381
X0384
Y05956
X0381
Y05921
X0384
Y05886
X0381
Y05851
X0384
Y05816
X0381
Y05781
X0384
Y05746
X0381
Y05711
X0384
Y05676
X0381
X03775
Y05711
Y05746
Y05781
Y05816
Y05851
Y05886
Y05921
Y05956
X0374
Y05921
Y05886
Y05851
Y05816
Y05781
Y05746
Y05711
Y05676
X03705
X03675
Y05711
X03705
Y05746
X03675
Y05781
X03705
Y05816
X03675
Y05851
X03705
Y05886
X03675
Y05921
X03705
Y05956
X03675
Y06026
X03705
X0374
X03775
X0381
X0384
Y06061
X0381
Y06096
X0384
Y06131
X0381
X03775
Y06096
Y06061
X0374
Y06096
Y06131
X03705
X03675
Y06096
X03705
Y06061
X03675
X02505Y05986
Y05951
Y05916
Y05881
Y05846
X0247
X02435
Y05811
X024
Y05846
Y05881
X02435
X0247
Y05916
X02435
X024
Y05951
X02435
X0247
Y05986
X02435
X024
X0206Y05981
X02
X0194
Y05921
X02
X0206
X02375Y05626
Y05591
Y05556
X0235Y05511
X0241Y05591
Y05626
X0251Y05666
X02545
Y05701
X0251
X02295Y05251
X0226
X02225
X0219
X02155
X0212
X0178Y05001
X0147Y04941
X01415Y05016
Y05066
Y05116
X01395Y04816
X0147Y04806
X01325Y04736
X0114Y04771
X01635Y05556
Y05616
X0249Y04911
X02525
X00955Y04936
Y04971
Y05006
Y05041
X00685Y04896
Y05666
X00955Y05706
Y05741
Y05776
Y05811
X0097Y06431
Y06466
Y06501
Y06536
X00745Y06531
Y06496
Y06461
Y06426
X0071Y06461
Y06496
Y06531
X0057Y06441
Y06406
Y06371
Y06336
Y06301
X00535
Y06336
Y06371
Y06406
Y06441
X005
Y06406
Y06371
Y06336
Y06301
X00465
Y06336
Y06371
Y06406
Y06441
X01005Y06431
Y06466
Y06501
Y06536
X0104
Y06501
Y06466
Y06431
X0221Y06425
X02245
X02225Y0638
X0219
X0221Y0633
X02245
X02225Y0647
X0219
X02575Y06201
X0261
X02645
X0268
X03675
X03705
X0374
X03775
X0381
X0384
Y06166
X0381
X03775
X0374
X03705
X03675
T04
X00442Y00179
X00618
X00862
X01038
T05
X0037Y00061
X0069
X0079
X0111
T06
X00135Y00566
Y00716
Y00866
Y01311
Y01461
X0378Y01385
Y01185
Y01585
Y01785
Y02108
Y02308
Y02508
Y02708
X00135Y02756
Y02606
Y02456
Y02306
Y02156
Y02006
Y01761
Y01611
Y02906
Y03056
Y03206
Y03356
Y03506
Y03656
Y03881
Y04031
Y04181
Y04331
X0378Y04354
Y04554
Y04154
Y03954
Y03631
Y03431
Y03231
Y03031
T07
X0353Y05066
Y05391
Y05716
Y06041
X0041Y06046
Y05721
Y05281
Y04956
T08
X0018Y0018
X0377
X0243Y01516
X01035Y02036
X0115Y04546
X0246
X0018Y06395
X0377
T09
X02033Y00182
X02533
M30
