%FSLAX25Y25*%
%MOIN*%
G70*
G01*
G75*
G04 Layer_Color=16711935*
%ADD10O,0.06102X0.01378*%
%ADD11R,0.12205X0.20079*%
%ADD12R,0.13583X0.07087*%
%ADD13R,0.02953X0.03740*%
%ADD14R,0.05500X0.05000*%
%ADD15R,0.05000X0.05500*%
%ADD16R,0.01575X0.05315*%
%ADD17R,0.11417X0.07480*%
G04:AMPARAMS|DCode=18|XSize=37.4mil|YSize=29.53mil|CornerRadius=0mil|HoleSize=0mil|Usage=FLASHONLY|Rotation=180.000|XOffset=0mil|YOffset=0mil|HoleType=Round|Shape=Octagon|*
%AMOCTAGOND18*
4,1,8,-0.01870,0.00738,-0.01870,-0.00738,-0.01132,-0.01476,0.01132,-0.01476,0.01870,-0.00738,0.01870,0.00738,0.01132,0.01476,-0.01132,0.01476,-0.01870,0.00738,0.0*
%
%ADD18OCTAGOND18*%

%ADD19R,0.03740X0.02953*%
G04:AMPARAMS|DCode=20|XSize=37.4mil|YSize=29.53mil|CornerRadius=0mil|HoleSize=0mil|Usage=FLASHONLY|Rotation=270.000|XOffset=0mil|YOffset=0mil|HoleType=Round|Shape=Octagon|*
%AMOCTAGOND20*
4,1,8,-0.00738,-0.01870,0.00738,-0.01870,0.01476,-0.01132,0.01476,0.01132,0.00738,0.01870,-0.00738,0.01870,-0.01476,0.01132,-0.01476,-0.01132,-0.00738,-0.01870,0.0*
%
%ADD20OCTAGOND20*%

%ADD21R,0.02362X0.05512*%
%ADD22O,0.06693X0.01378*%
%ADD23R,0.06299X0.03937*%
%ADD24R,0.06299X0.11811*%
%ADD25R,0.26378X0.26378*%
%ADD26R,0.11811X0.06299*%
%ADD27R,0.26378X0.26378*%
%ADD28R,0.04961X0.08071*%
%ADD29R,0.02559X0.01181*%
%ADD30R,0.02756X0.00984*%
%ADD31R,0.00984X0.02756*%
%ADD32R,0.09843X0.09843*%
%ADD33R,0.07100X0.07900*%
%ADD34O,0.08268X0.01181*%
%ADD35O,0.01181X0.08268*%
%ADD36O,0.07087X0.02362*%
%ADD37O,0.02362X0.06693*%
%ADD38O,0.06496X0.01299*%
%ADD39R,0.06299X0.15354*%
%ADD40R,0.03189X0.18110*%
%ADD41R,0.02402X0.18110*%
%ADD42R,0.16000X0.06000*%
%ADD43R,0.50394X0.13780*%
%ADD44R,0.13780X0.50394*%
%ADD45R,0.06000X0.16000*%
%ADD46O,0.06496X0.01181*%
%ADD47O,0.01181X0.06496*%
%ADD48O,0.06299X0.01772*%
%ADD49R,0.31496X0.08661*%
%ADD50R,0.06299X0.08307*%
%ADD51R,0.03150X0.02362*%
%ADD52R,0.05512X0.02362*%
%ADD53R,0.10000X0.05000*%
%ADD54R,0.01378X0.05906*%
%ADD55O,0.01378X0.05906*%
%ADD56R,0.12205X0.11811*%
%ADD57R,0.02441X0.04803*%
%ADD58R,0.10039X0.06102*%
%ADD59R,0.04803X0.02441*%
%ADD60R,0.05906X0.09843*%
%ADD61R,0.03150X0.02756*%
%ADD62O,0.00984X0.02165*%
%ADD63R,0.02362X0.04331*%
%ADD64R,0.02362X0.03150*%
%ADD65R,0.02992X0.08071*%
%ADD66R,0.07000X0.06000*%
%ADD67R,0.06300X0.10600*%
%ADD68R,0.05512X0.04724*%
%ADD69R,0.10630X0.03937*%
%ADD70R,0.03189X0.09646*%
%ADD71R,0.04331X0.03150*%
%ADD72R,0.09055X0.09252*%
%ADD73R,0.09252X0.09055*%
%ADD74R,0.03150X0.04331*%
%ADD75R,0.06000X0.07000*%
%ADD76R,0.04724X0.05512*%
%ADD77R,0.14488X0.05000*%
%ADD78R,0.05315X0.02362*%
%ADD79R,0.05315X0.04134*%
%ADD80C,0.06000*%
%ADD81R,0.04724X0.04331*%
%ADD82R,0.01969X0.03543*%
%ADD83R,0.03543X0.07874*%
%ADD84R,0.04331X0.05906*%
%ADD85R,0.03543X0.01772*%
%ADD86C,0.00700*%
%ADD87C,0.01200*%
%ADD88C,0.01000*%
%ADD89C,0.02000*%
%ADD90C,0.01500*%
%ADD91C,0.03000*%
%ADD92C,0.04160*%
%ADD93O,0.05413X0.07480*%
%ADD94C,0.09000*%
%ADD95C,0.26000*%
%ADD96C,0.12992*%
%ADD97C,0.15000*%
%ADD98C,0.04000*%
%ADD99C,0.03000*%
%ADD100C,0.02400*%
%ADD101C,0.00984*%
%ADD102C,0.02362*%
%ADD103C,0.00787*%
%ADD104C,0.00800*%
%ADD105C,0.00394*%
%ADD106C,0.00600*%
%ADD107R,0.05000X0.02791*%
%ADD108R,0.04800X0.02283*%
%ADD109R,0.04000X0.02902*%
%ADD110R,0.02630X0.03000*%
%ADD111R,0.02300X0.01306*%
%ADD112R,0.02050X0.01602*%
%ADD113R,0.07000X1.25000*%
%ADD114R,0.02039X0.03000*%
%ADD115R,0.03565X0.01969*%
%ADD116R,0.03300X0.01280*%
%ADD117R,0.01969X0.03565*%
%ADD118R,0.48000X0.04000*%
%ADD119R,0.08100X0.01800*%
%ADD120R,0.02000X0.06100*%
%ADD121R,0.02378X0.01575*%
%ADD122R,0.02056X0.04138*%
%ADD123R,0.02056X0.04138*%
%ADD124R,0.04138X0.02056*%
%ADD125R,0.01575X0.02378*%
%ADD126R,0.01575X0.02378*%
%ADD127R,0.06100X0.02000*%
%ADD128R,0.01800X0.08100*%
%ADD129R,0.18000X0.04000*%
%ADD130R,0.14383X0.07887*%
%ADD131R,0.03753X0.04540*%
%ADD132R,0.06300X0.05800*%
%ADD133R,0.05800X0.06300*%
G04:AMPARAMS|DCode=134|XSize=45.4mil|YSize=37.53mil|CornerRadius=0mil|HoleSize=0mil|Usage=FLASHONLY|Rotation=180.000|XOffset=0mil|YOffset=0mil|HoleType=Round|Shape=Octagon|*
%AMOCTAGOND134*
4,1,8,-0.02270,0.00938,-0.02270,-0.00938,-0.01332,-0.01876,0.01332,-0.01876,0.02270,-0.00938,0.02270,0.00938,0.01332,0.01876,-0.01332,0.01876,-0.02270,0.00938,0.0*
%
%ADD134OCTAGOND134*%

%ADD135R,0.04540X0.03753*%
G04:AMPARAMS|DCode=136|XSize=45.4mil|YSize=37.53mil|CornerRadius=0mil|HoleSize=0mil|Usage=FLASHONLY|Rotation=270.000|XOffset=0mil|YOffset=0mil|HoleType=Round|Shape=Octagon|*
%AMOCTAGOND136*
4,1,8,-0.00938,-0.02270,0.00938,-0.02270,0.01876,-0.01332,0.01876,0.01332,0.00938,0.02270,-0.00938,0.02270,-0.01876,0.01332,-0.01876,-0.01332,-0.00938,-0.02270,0.0*
%
%ADD136OCTAGOND136*%

%ADD137R,0.03162X0.06312*%
%ADD138R,0.07099X0.04737*%
%ADD139R,0.07099X0.12611*%
%ADD140R,0.27178X0.27178*%
%ADD141R,0.12611X0.07099*%
%ADD142R,0.27178X0.27178*%
%ADD143R,0.10642X0.10642*%
%ADD144R,0.07900X0.08700*%
%ADD145O,0.07887X0.03162*%
%ADD146O,0.03162X0.07493*%
%ADD147R,0.07099X0.16154*%
%ADD148R,0.03989X0.18910*%
%ADD149R,0.03202X0.18910*%
%ADD150R,0.16800X0.06800*%
%ADD151R,0.51194X0.14579*%
%ADD152R,0.14579X0.51194*%
%ADD153R,0.06800X0.16800*%
%ADD154R,0.32296X0.09461*%
%ADD155R,0.07099X0.09107*%
%ADD156R,0.03950X0.03162*%
%ADD157R,0.06312X0.03162*%
%ADD158R,0.10800X0.05800*%
%ADD159R,0.03241X0.05603*%
%ADD160R,0.10839X0.06902*%
%ADD161R,0.05603X0.03241*%
%ADD162R,0.06706X0.10642*%
%ADD163R,0.03162X0.05131*%
%ADD164R,0.03162X0.03950*%
%ADD165R,0.07800X0.06800*%
%ADD166R,0.07100X0.11400*%
%ADD167R,0.06312X0.05524*%
%ADD168R,0.11430X0.04737*%
%ADD169R,0.03989X0.10446*%
%ADD170R,0.05131X0.03950*%
%ADD171R,0.09855X0.10052*%
%ADD172R,0.10052X0.09855*%
%ADD173R,0.03950X0.05131*%
%ADD174R,0.06800X0.07800*%
%ADD175R,0.05524X0.06312*%
%ADD176R,0.15288X0.05800*%
%ADD177R,0.06115X0.03162*%
%ADD178R,0.06115X0.04934*%
%ADD179C,0.10724*%
%ADD180C,0.09800*%
%ADD181C,0.26800*%
%ADD182C,0.14192*%
%ADD183C,0.15800*%
%ADD184C,0.04800*%
%ADD185C,0.03200*%
%ADD186C,0.03800*%
D92*
X61760Y17890D02*
D03*
X44240D02*
D03*
X103760D02*
D03*
X86240D02*
D03*
D93*
X36957Y6079D02*
D03*
X69043D02*
D03*
X78957D02*
D03*
X111043D02*
D03*
D98*
X192500Y4579D02*
D03*
X264500D02*
D03*
X75500Y98579D02*
D03*
X81500D02*
D03*
X45500Y94579D02*
D03*
X38500Y110079D02*
D03*
X33500Y75079D02*
D03*
Y66579D02*
D03*
X114028Y477079D02*
D03*
X178000Y500079D02*
D03*
X147000Y494079D02*
D03*
X139500Y481579D02*
D03*
X147000Y480579D02*
D03*
X132500Y473579D02*
D03*
X28500Y374579D02*
D03*
Y257579D02*
D03*
Y318079D02*
D03*
D99*
X310500Y148092D02*
D03*
X306000D02*
D03*
X301500D02*
D03*
X310500Y152816D02*
D03*
X306000D02*
D03*
X301500D02*
D03*
X310500Y157541D02*
D03*
X306000D02*
D03*
X301500D02*
D03*
X310500Y162265D02*
D03*
X306000D02*
D03*
X301500D02*
D03*
X310500Y240392D02*
D03*
X306000D02*
D03*
X301500D02*
D03*
X310500Y245116D02*
D03*
X306000D02*
D03*
X301500D02*
D03*
X310500Y249841D02*
D03*
X306000D02*
D03*
X301500D02*
D03*
X310500Y254565D02*
D03*
X306000D02*
D03*
X301500D02*
D03*
X310500Y332692D02*
D03*
X306000D02*
D03*
X301500D02*
D03*
X310500Y337417D02*
D03*
X306000D02*
D03*
X301500D02*
D03*
X310500Y342141D02*
D03*
X306000D02*
D03*
X301500D02*
D03*
X310500Y346865D02*
D03*
X306000D02*
D03*
X301500D02*
D03*
X310500Y424992D02*
D03*
X306000D02*
D03*
X301500D02*
D03*
X310500Y429716D02*
D03*
X306000D02*
D03*
X301500D02*
D03*
X310500Y434441D02*
D03*
X306000D02*
D03*
X301500D02*
D03*
X310500Y439165D02*
D03*
X306000D02*
D03*
X301500D02*
D03*
X31500Y43079D02*
D03*
Y100579D02*
D03*
Y112579D02*
D03*
X5500Y37079D02*
D03*
X31500Y106579D02*
D03*
X5500D02*
D03*
X109000Y395079D02*
D03*
X95500Y343579D02*
D03*
X124500Y315079D02*
D03*
X141500Y419579D02*
D03*
X139000D02*
D03*
X136500D02*
D03*
X125000Y415079D02*
D03*
X159500Y418079D02*
D03*
X157500Y420079D02*
D03*
X162000Y418079D02*
D03*
X146000Y399079D02*
D03*
X105500Y351079D02*
D03*
X96500Y365579D02*
D03*
X99000D02*
D03*
X108000Y351079D02*
D03*
X116000Y356579D02*
D03*
X115000Y320079D02*
D03*
Y332579D02*
D03*
Y337079D02*
D03*
X160000Y120579D02*
D03*
X154000Y95579D02*
D03*
Y25579D02*
D03*
X160504Y45579D02*
D03*
X154000Y65579D02*
D03*
X254500Y195579D02*
D03*
Y198079D02*
D03*
Y200579D02*
D03*
Y203079D02*
D03*
X240500Y244579D02*
D03*
X225500Y235079D02*
D03*
X232500Y201079D02*
D03*
Y203579D02*
D03*
X246500Y176579D02*
D03*
X247500Y179079D02*
D03*
X222000Y179579D02*
D03*
X246500Y169079D02*
D03*
Y171579D02*
D03*
Y174079D02*
D03*
X229500Y192079D02*
D03*
Y189579D02*
D03*
Y187079D02*
D03*
Y184579D02*
D03*
Y182079D02*
D03*
X232000Y179579D02*
D03*
X229500D02*
D03*
X222000Y167079D02*
D03*
Y169579D02*
D03*
Y172079D02*
D03*
Y174579D02*
D03*
X62000Y114579D02*
D03*
Y100079D02*
D03*
X74500Y50079D02*
D03*
X76500Y41358D02*
D03*
X77000Y68079D02*
D03*
X125000Y76079D02*
D03*
X123000Y90500D02*
D03*
X110327Y58079D02*
D03*
X83358Y65579D02*
D03*
X106390Y58079D02*
D03*
X90716Y88468D02*
D03*
X52500Y268079D02*
D03*
X56000Y279079D02*
D03*
X232000Y189579D02*
D03*
X232500Y211079D02*
D03*
Y208579D02*
D03*
Y206079D02*
D03*
X232000Y182079D02*
D03*
Y184579D02*
D03*
Y187079D02*
D03*
Y192079D02*
D03*
X224500Y179579D02*
D03*
X247500Y181579D02*
D03*
X180000D02*
D03*
X237000Y213079D02*
D03*
X225500Y237579D02*
D03*
X213500Y236500D02*
D03*
X212000Y234500D02*
D03*
X222000Y205079D02*
D03*
Y210579D02*
D03*
X185063Y208142D02*
D03*
X185150Y187729D02*
D03*
X207000Y191579D02*
D03*
X56000Y218079D02*
D03*
X196177Y537646D02*
D03*
X190272D02*
D03*
X202083D02*
D03*
Y531347D02*
D03*
X190272D02*
D03*
X196177D02*
D03*
X56000Y338079D02*
D03*
X220350Y198429D02*
D03*
X241028Y433551D02*
D03*
X242000Y437579D02*
D03*
X169650Y223579D02*
D03*
X182150Y197229D02*
D03*
X256500Y441079D02*
D03*
X238500Y307579D02*
D03*
D100*
X218000Y392500D02*
D03*
X220500Y396079D02*
D03*
X128500Y367079D02*
D03*
X188500Y370079D02*
D03*
X189000Y374079D02*
D03*
X138500Y86579D02*
D03*
X256500Y402229D02*
D03*
X128000Y48079D02*
D03*
X185000Y54579D02*
D03*
X188000Y99079D02*
D03*
X358500Y16429D02*
D03*
X197000Y302579D02*
D03*
X101000Y112579D02*
D03*
X103000Y90079D02*
D03*
X70500Y268579D02*
D03*
X64500Y296579D02*
D03*
X144000Y333579D02*
D03*
X141000Y324079D02*
D03*
X146000Y336079D02*
D03*
X141500Y356079D02*
D03*
X189000Y386079D02*
D03*
X192232Y384579D02*
D03*
X125000Y403079D02*
D03*
X123000Y403579D02*
D03*
X124500Y405079D02*
D03*
X126000Y406579D02*
D03*
X128000Y407579D02*
D03*
X121500Y402000D02*
D03*
X120000Y400500D02*
D03*
X122000Y400000D02*
D03*
X138000Y382579D02*
D03*
X118500Y399000D02*
D03*
X134000Y379079D02*
D03*
X140000Y342579D02*
D03*
X141000Y346079D02*
D03*
X143000Y341079D02*
D03*
X112000Y344579D02*
D03*
X143000Y353079D02*
D03*
X142649Y349627D02*
D03*
X199500Y314079D02*
D03*
X204650Y332579D02*
D03*
X209500Y325579D02*
D03*
X183500Y231579D02*
D03*
X224000Y340579D02*
D03*
X112000Y36579D02*
D03*
X343500Y16429D02*
D03*
X356500Y23079D02*
D03*
X353000Y27079D02*
D03*
X306500Y74579D02*
D03*
X299575Y68189D02*
D03*
X327500Y71819D02*
D03*
X141500Y10579D02*
D03*
X121000Y11579D02*
D03*
X117500Y7579D02*
D03*
Y11579D02*
D03*
X289500Y132079D02*
D03*
X225000Y241079D02*
D03*
X223500Y242579D02*
D03*
X253500Y311079D02*
D03*
X171500Y200079D02*
D03*
Y183579D02*
D03*
X243500Y301079D02*
D03*
X295000Y84079D02*
D03*
X274000Y165079D02*
D03*
X283000Y88000D02*
D03*
X273000Y79079D02*
D03*
X281500Y79579D02*
D03*
X278500Y88579D02*
D03*
X288500Y76079D02*
D03*
X343000Y7579D02*
D03*
X187250Y12079D02*
D03*
X188000Y7079D02*
D03*
X175000Y45579D02*
D03*
X116980Y45894D02*
D03*
X120721D02*
D03*
X120760Y25579D02*
D03*
X124500D02*
D03*
X117000D02*
D03*
X137500Y72579D02*
D03*
Y92079D02*
D03*
Y53079D02*
D03*
X127000Y52079D02*
D03*
X137500Y111579D02*
D03*
X140500Y32079D02*
D03*
X141000Y40729D02*
D03*
X73650Y55579D02*
D03*
X76500Y88079D02*
D03*
X45150Y30429D02*
D03*
X45500Y39079D02*
D03*
X67000Y26579D02*
D03*
X70500Y28579D02*
D03*
X49000Y32579D02*
D03*
X62500Y68079D02*
D03*
X125000Y93500D02*
D03*
X114500Y96579D02*
D03*
X124000Y87079D02*
D03*
X190600Y315979D02*
D03*
X126000Y107579D02*
D03*
X81000Y39000D02*
D03*
X103500Y82579D02*
D03*
X106000Y85579D02*
D03*
X70500Y77579D02*
D03*
X55000Y75079D02*
D03*
X71000Y92579D02*
D03*
X47500Y85579D02*
D03*
X90500Y116079D02*
D03*
X100484Y105079D02*
D03*
X99500Y109079D02*
D03*
X90642Y105079D02*
D03*
X238000Y395079D02*
D03*
X107850Y552079D02*
D03*
X253500Y121579D02*
D03*
X246150Y122079D02*
D03*
X175000Y40079D02*
D03*
X176000Y492079D02*
D03*
X170000D02*
D03*
X164000D02*
D03*
X158000D02*
D03*
X175000Y331579D02*
D03*
X171000Y337579D02*
D03*
X173000Y340579D02*
D03*
Y334579D02*
D03*
X175000Y343579D02*
D03*
X201500Y346579D02*
D03*
X152000Y492079D02*
D03*
X147000Y373579D02*
D03*
X344000Y87579D02*
D03*
X199500Y343079D02*
D03*
X274000Y159079D02*
D03*
X253500Y164579D02*
D03*
X249000Y166079D02*
D03*
X358150Y26229D02*
D03*
X74000Y292579D02*
D03*
X176484Y286079D02*
D03*
X178000Y289579D02*
D03*
X133500Y33579D02*
D03*
X130000D02*
D03*
X208677Y414902D02*
D03*
X197500Y417461D02*
D03*
X204000Y429000D02*
D03*
X206000Y389079D02*
D03*
X200000D02*
D03*
X207000Y301579D02*
D03*
X183500Y225079D02*
D03*
X155000Y248079D02*
D03*
X275000Y175079D02*
D03*
X269000Y151179D02*
D03*
X229800Y302079D02*
D03*
Y298579D02*
D03*
Y295079D02*
D03*
Y291579D02*
D03*
Y288079D02*
D03*
X220500Y472579D02*
D03*
X232500Y495079D02*
D03*
Y434579D02*
D03*
X225500Y472579D02*
D03*
X225000Y496579D02*
D03*
Y485079D02*
D03*
X216500Y433079D02*
D03*
X198500Y310079D02*
D03*
X196500Y307579D02*
D03*
X196000Y123579D02*
D03*
X208000Y214579D02*
D03*
X209500Y217579D02*
D03*
X225500Y125079D02*
D03*
X220500D02*
D03*
X211000Y120579D02*
D03*
X228500Y115079D02*
D03*
X236500Y120579D02*
D03*
X250000Y119079D02*
D03*
X197500Y228579D02*
D03*
X220750Y264329D02*
D03*
X220650Y253229D02*
D03*
X221500Y242579D02*
D03*
Y248079D02*
D03*
X209500Y255579D02*
D03*
X199350Y251579D02*
D03*
X207000Y250579D02*
D03*
X192500Y231579D02*
D03*
X179500Y240579D02*
D03*
X212500Y214079D02*
D03*
X265500Y428579D02*
D03*
X265000Y435079D02*
D03*
Y438579D02*
D03*
Y442079D02*
D03*
X243500Y397079D02*
D03*
X249000D02*
D03*
X254500D02*
D03*
X260000D02*
D03*
X269000Y146079D02*
D03*
X290500Y148781D02*
D03*
Y241081D02*
D03*
X146000Y339579D02*
D03*
X140000Y328705D02*
D03*
X143000Y326579D02*
D03*
X140000Y320831D02*
D03*
X115000Y341079D02*
D03*
X114000Y328579D02*
D03*
Y325079D02*
D03*
X119000Y314579D02*
D03*
X108000Y474079D02*
D03*
X196500Y231579D02*
D03*
X211000Y266079D02*
D03*
X196000Y247079D02*
D03*
X211921Y253000D02*
D03*
X169500Y207079D02*
D03*
Y212579D02*
D03*
Y218079D02*
D03*
Y228079D02*
D03*
X208500Y328720D02*
D03*
X222795Y324783D02*
D03*
X211500Y323079D02*
D03*
X209000Y320579D02*
D03*
X211000Y315079D02*
D03*
X208500Y312579D02*
D03*
X212000Y340531D02*
D03*
X207500Y274579D02*
D03*
X208000Y336079D02*
D03*
X209500Y508079D02*
D03*
X208500Y487697D02*
D03*
X212500Y433079D02*
D03*
X229500Y508079D02*
D03*
X209500Y504579D02*
D03*
X214500Y515079D02*
D03*
X237000Y490256D02*
D03*
X237500Y486579D02*
D03*
X203000Y470579D02*
D03*
Y456579D02*
D03*
X220500Y433079D02*
D03*
X225500D02*
D03*
X238000Y398579D02*
D03*
X260000Y412579D02*
D03*
X206000Y362079D02*
D03*
X203500Y359579D02*
D03*
X202000Y356079D02*
D03*
X182500Y372579D02*
D03*
X185000Y370579D02*
D03*
X205000Y438579D02*
D03*
X216500Y478579D02*
D03*
X213500Y476079D02*
D03*
X203000Y480079D02*
D03*
X211500Y495500D02*
D03*
X210500Y366579D02*
D03*
X234500Y425079D02*
D03*
X152500Y245579D02*
D03*
X208000Y384079D02*
D03*
X174000Y368079D02*
D03*
X181500Y54579D02*
D03*
X185000Y74079D02*
D03*
Y78079D02*
D03*
X182500Y98579D02*
D03*
X180000Y100579D02*
D03*
X176500Y99079D02*
D03*
X131500Y53079D02*
D03*
X179500Y114579D02*
D03*
X181000Y110329D02*
D03*
X182000Y133079D02*
D03*
X185500Y143079D02*
D03*
X183000Y140079D02*
D03*
X180000Y145579D02*
D03*
X131500Y72579D02*
D03*
X134000Y92079D02*
D03*
X131500Y111579D02*
D03*
X263000Y133579D02*
D03*
X260500Y131079D02*
D03*
X209000Y500500D02*
D03*
X186500Y488579D02*
D03*
X185000Y33079D02*
D03*
X181500Y12579D02*
D03*
X177500Y33079D02*
D03*
X181000D02*
D03*
X177500Y12579D02*
D03*
X175350Y70429D02*
D03*
X175000Y53579D02*
D03*
X176000Y75579D02*
D03*
X322500Y95579D02*
D03*
X330500Y63079D02*
D03*
Y73579D02*
D03*
X337500Y77579D02*
D03*
X337000Y59079D02*
D03*
X328000Y68079D02*
D03*
Y75579D02*
D03*
X105000Y40079D02*
D03*
X91000Y32579D02*
D03*
X92500Y21079D02*
D03*
X105000Y32579D02*
D03*
X101500Y21579D02*
D03*
X105500Y47579D02*
D03*
X87000Y39079D02*
D03*
X111500Y48579D02*
D03*
X83500Y26500D02*
D03*
X108500Y26579D02*
D03*
X185000Y306500D02*
D03*
X183500Y311079D02*
D03*
Y302079D02*
D03*
X189000Y401079D02*
D03*
X193500Y400579D02*
D03*
X192000Y402079D02*
D03*
X219354Y407224D02*
D03*
X214500Y425079D02*
D03*
X227000Y416579D02*
D03*
X219850Y401079D02*
D03*
X211500Y335579D02*
D03*
X240500Y311079D02*
D03*
X254000Y318079D02*
D03*
Y324079D02*
D03*
X283000Y12488D02*
D03*
X296500Y13000D02*
D03*
X318256Y15244D02*
D03*
X301256D02*
D03*
X334000Y13000D02*
D03*
X312000Y18000D02*
D03*
X277500Y73500D02*
D03*
X333500Y19500D02*
D03*
X198000Y517579D02*
D03*
X196177Y551756D02*
D03*
X144000Y364579D02*
D03*
D180*
X13500Y56579D02*
D03*
Y86579D02*
D03*
Y71579D02*
D03*
Y388079D02*
D03*
Y403079D02*
D03*
Y418079D02*
D03*
Y433079D02*
D03*
Y200579D02*
D03*
Y215579D02*
D03*
Y245579D02*
D03*
Y230579D02*
D03*
Y320579D02*
D03*
Y335579D02*
D03*
Y365579D02*
D03*
Y350579D02*
D03*
Y260579D02*
D03*
Y275579D02*
D03*
Y305579D02*
D03*
Y290579D02*
D03*
X378000Y455379D02*
D03*
Y435379D02*
D03*
Y395379D02*
D03*
Y415379D02*
D03*
Y363079D02*
D03*
Y343079D02*
D03*
Y303079D02*
D03*
Y323079D02*
D03*
Y270779D02*
D03*
Y250779D02*
D03*
Y210779D02*
D03*
Y230779D02*
D03*
Y178479D02*
D03*
Y158479D02*
D03*
Y118479D02*
D03*
Y138479D02*
D03*
X13500Y176079D02*
D03*
Y161079D02*
D03*
Y146079D02*
D03*
Y131079D02*
D03*
D181*
X246000Y454579D02*
D03*
X18000Y17979D02*
D03*
X115000Y454579D02*
D03*
X377000Y17979D02*
D03*
X243000Y151579D02*
D03*
X103500Y203579D02*
D03*
X377000Y639479D02*
D03*
X18000D02*
D03*
D182*
X203319Y18232D02*
D03*
X253319D02*
D03*
D183*
X41000Y572079D02*
D03*
Y604579D02*
D03*
X353000Y604079D02*
D03*
Y571579D02*
D03*
Y539079D02*
D03*
Y506579D02*
D03*
X41000Y495579D02*
D03*
Y528079D02*
D03*
D184*
X347500Y378000D02*
D03*
X224500Y633000D02*
D03*
X221000D02*
D03*
X222500Y638000D02*
D03*
X219000D02*
D03*
X224500Y642500D02*
D03*
X221000D02*
D03*
X222500Y647000D02*
D03*
X219000D02*
D03*
X282500Y552000D02*
D03*
X279000D02*
D03*
X289500D02*
D03*
X286000D02*
D03*
X296500D02*
D03*
X293000D02*
D03*
X275500D02*
D03*
X272000D02*
D03*
X303000D02*
D03*
X299500D02*
D03*
X301000Y558000D02*
D03*
X277000D02*
D03*
X273500D02*
D03*
X297500D02*
D03*
X294000D02*
D03*
X290500D02*
D03*
X287000D02*
D03*
X284000D02*
D03*
X280500D02*
D03*
X304500D02*
D03*
X229500Y525079D02*
D03*
X226000D02*
D03*
X222500D02*
D03*
X219000D02*
D03*
X215500D02*
D03*
X212000D02*
D03*
X252500Y491079D02*
D03*
X249000D02*
D03*
X235000Y551079D02*
D03*
X237500Y555579D02*
D03*
X384000Y616579D02*
D03*
Y613079D02*
D03*
Y609579D02*
D03*
Y595579D02*
D03*
Y599079D02*
D03*
Y602579D02*
D03*
Y606079D02*
D03*
Y581579D02*
D03*
Y585079D02*
D03*
Y588579D02*
D03*
Y592079D02*
D03*
Y567579D02*
D03*
Y571079D02*
D03*
Y574579D02*
D03*
Y578079D02*
D03*
Y620079D02*
D03*
X381000Y616579D02*
D03*
Y613079D02*
D03*
Y609579D02*
D03*
Y595579D02*
D03*
Y599079D02*
D03*
Y602579D02*
D03*
Y606079D02*
D03*
Y581579D02*
D03*
Y585079D02*
D03*
Y588579D02*
D03*
Y592079D02*
D03*
Y567579D02*
D03*
Y571079D02*
D03*
Y574579D02*
D03*
Y578079D02*
D03*
Y620079D02*
D03*
X377500Y616579D02*
D03*
Y613079D02*
D03*
Y609579D02*
D03*
Y595579D02*
D03*
Y599079D02*
D03*
Y602579D02*
D03*
Y606079D02*
D03*
Y581579D02*
D03*
Y585079D02*
D03*
Y588579D02*
D03*
Y592079D02*
D03*
Y567579D02*
D03*
Y571079D02*
D03*
Y574579D02*
D03*
Y578079D02*
D03*
Y620079D02*
D03*
X374000Y616579D02*
D03*
Y613079D02*
D03*
Y609579D02*
D03*
Y595579D02*
D03*
Y599079D02*
D03*
Y602579D02*
D03*
Y606079D02*
D03*
Y581579D02*
D03*
Y585079D02*
D03*
Y588579D02*
D03*
Y592079D02*
D03*
Y567579D02*
D03*
Y571079D02*
D03*
Y574579D02*
D03*
Y578079D02*
D03*
Y620079D02*
D03*
X370500Y616579D02*
D03*
Y613079D02*
D03*
Y609579D02*
D03*
Y595579D02*
D03*
Y599079D02*
D03*
Y602579D02*
D03*
Y606079D02*
D03*
Y581579D02*
D03*
Y585079D02*
D03*
Y588579D02*
D03*
Y592079D02*
D03*
Y567579D02*
D03*
Y571079D02*
D03*
Y574579D02*
D03*
Y578079D02*
D03*
Y620079D02*
D03*
X367500Y616579D02*
D03*
Y613079D02*
D03*
Y609579D02*
D03*
Y595579D02*
D03*
Y599079D02*
D03*
Y602579D02*
D03*
Y606079D02*
D03*
Y581579D02*
D03*
Y585079D02*
D03*
Y588579D02*
D03*
Y592079D02*
D03*
Y567579D02*
D03*
Y571079D02*
D03*
Y574579D02*
D03*
Y578079D02*
D03*
Y620079D02*
D03*
X268000D02*
D03*
X264500D02*
D03*
X261000D02*
D03*
X257500D02*
D03*
X268000Y604079D02*
D03*
X264500D02*
D03*
X261000D02*
D03*
X257500D02*
D03*
X268000Y600579D02*
D03*
X264500D02*
D03*
X261000D02*
D03*
X257500D02*
D03*
X268000Y586579D02*
D03*
X264500D02*
D03*
X261000D02*
D03*
X257500D02*
D03*
X268000Y590079D02*
D03*
X264500D02*
D03*
X261000D02*
D03*
X257500D02*
D03*
X261500Y566579D02*
D03*
X258000D02*
D03*
X254500D02*
D03*
X251000D02*
D03*
X261500Y570079D02*
D03*
X258000D02*
D03*
X254500D02*
D03*
X251000D02*
D03*
X243500Y581079D02*
D03*
X240000D02*
D03*
Y584579D02*
D03*
X243500D02*
D03*
X247000D02*
D03*
X250500D02*
D03*
X240000Y588079D02*
D03*
X243500D02*
D03*
X247000D02*
D03*
X250500D02*
D03*
X240000Y591579D02*
D03*
X243500D02*
D03*
X247000D02*
D03*
X250500D02*
D03*
X240000Y595079D02*
D03*
X243500D02*
D03*
X247000D02*
D03*
X250500D02*
D03*
Y598579D02*
D03*
X247000D02*
D03*
X243500D02*
D03*
X240000D02*
D03*
X256000Y491079D02*
D03*
X259500D02*
D03*
X263000D02*
D03*
X266500D02*
D03*
X270000D02*
D03*
X273500D02*
D03*
X277000D02*
D03*
X303000Y513579D02*
D03*
X306500D02*
D03*
X310000D02*
D03*
X303000Y510079D02*
D03*
X306500D02*
D03*
X310000D02*
D03*
Y522079D02*
D03*
X306500D02*
D03*
X303000D02*
D03*
X310000Y525579D02*
D03*
X306500D02*
D03*
X303000D02*
D03*
X297000Y468079D02*
D03*
Y471579D02*
D03*
Y475079D02*
D03*
Y478579D02*
D03*
Y482079D02*
D03*
X291500Y466079D02*
D03*
X288000D02*
D03*
X284500D02*
D03*
X281000D02*
D03*
X277500D02*
D03*
X274000D02*
D03*
X270500D02*
D03*
X237500Y559079D02*
D03*
X241000D02*
D03*
X237500Y562579D02*
D03*
X241000D02*
D03*
X194000Y598079D02*
D03*
X200000D02*
D03*
X206000D02*
D03*
Y592079D02*
D03*
X200000D02*
D03*
X194000D02*
D03*
X345500Y98579D02*
D03*
X378500Y95079D02*
D03*
X386500Y81579D02*
D03*
X378500Y98579D02*
D03*
X330500Y119679D02*
D03*
Y124679D02*
D03*
X336000Y119679D02*
D03*
Y124679D02*
D03*
Y130179D02*
D03*
Y135179D02*
D03*
X330500Y211979D02*
D03*
Y216979D02*
D03*
X336000Y211979D02*
D03*
Y216979D02*
D03*
Y222479D02*
D03*
Y227479D02*
D03*
X330500Y304279D02*
D03*
Y309279D02*
D03*
X336000Y304279D02*
D03*
Y309279D02*
D03*
Y314779D02*
D03*
Y319779D02*
D03*
X358500Y149679D02*
D03*
Y241979D02*
D03*
Y334279D02*
D03*
X68500Y489579D02*
D03*
X336000Y412079D02*
D03*
Y407079D02*
D03*
Y401579D02*
D03*
Y396579D02*
D03*
X330500Y401579D02*
D03*
X358500Y426579D02*
D03*
X330500Y396579D02*
D03*
X357500Y378000D02*
D03*
X352500D02*
D03*
X347500Y111000D02*
D03*
X352500D02*
D03*
X357500D02*
D03*
Y193500D02*
D03*
X352500D02*
D03*
X347500D02*
D03*
Y202500D02*
D03*
X352500D02*
D03*
X357500D02*
D03*
Y286000D02*
D03*
X352500D02*
D03*
X347500D02*
D03*
Y295000D02*
D03*
X352500D02*
D03*
X357500D02*
D03*
Y470079D02*
D03*
X352500D02*
D03*
X347500D02*
D03*
X68500Y566579D02*
D03*
X357500Y387500D02*
D03*
X352500D02*
D03*
X347500D02*
D03*
X163500Y561579D02*
D03*
Y555579D02*
D03*
X141500Y511579D02*
D03*
Y506579D02*
D03*
Y501579D02*
D03*
X57000Y644079D02*
D03*
Y640579D02*
D03*
Y637079D02*
D03*
Y633579D02*
D03*
Y630079D02*
D03*
X53500D02*
D03*
Y633579D02*
D03*
Y637079D02*
D03*
Y640579D02*
D03*
Y644079D02*
D03*
X50000D02*
D03*
Y640579D02*
D03*
Y637079D02*
D03*
Y633579D02*
D03*
Y630079D02*
D03*
X46500Y644079D02*
D03*
Y640579D02*
D03*
Y637079D02*
D03*
Y633579D02*
D03*
Y630079D02*
D03*
X74500Y653079D02*
D03*
Y649579D02*
D03*
Y646079D02*
D03*
Y642579D02*
D03*
X71000Y653079D02*
D03*
Y649579D02*
D03*
Y646079D02*
D03*
X97000Y653579D02*
D03*
X100500D02*
D03*
X104000D02*
D03*
X97000Y650079D02*
D03*
Y646579D02*
D03*
Y643079D02*
D03*
X100500Y646579D02*
D03*
Y650079D02*
D03*
X104000D02*
D03*
Y646579D02*
D03*
Y643079D02*
D03*
X100500D02*
D03*
X95500Y581079D02*
D03*
Y577579D02*
D03*
Y574079D02*
D03*
Y570579D02*
D03*
Y493579D02*
D03*
Y497079D02*
D03*
Y500579D02*
D03*
Y504079D02*
D03*
D185*
X284500Y381579D02*
D03*
X92000Y83579D02*
D03*
X56200Y59079D02*
D03*
X90000Y80079D02*
D03*
X52800Y59079D02*
D03*
X149500Y360579D02*
D03*
X94200Y56079D02*
D03*
X97600D02*
D03*
X270000Y179079D02*
D03*
X257000Y416579D02*
D03*
X242000D02*
D03*
X232000Y128679D02*
D03*
X204500D02*
D03*
X232000Y132079D02*
D03*
X204500D02*
D03*
X282500Y304079D02*
D03*
X317000Y457079D02*
D03*
X268500Y445079D02*
D03*
Y457079D02*
D03*
Y376579D02*
D03*
Y364579D02*
D03*
Y251079D02*
D03*
Y239079D02*
D03*
X282000Y292579D02*
D03*
X268500Y115179D02*
D03*
Y121179D02*
D03*
Y97179D02*
D03*
Y103179D02*
D03*
Y109179D02*
D03*
Y133179D02*
D03*
Y197079D02*
D03*
Y203079D02*
D03*
Y245079D02*
D03*
Y227079D02*
D03*
Y233079D02*
D03*
Y185079D02*
D03*
Y191079D02*
D03*
Y215079D02*
D03*
X313000Y183479D02*
D03*
Y275779D02*
D03*
Y368079D02*
D03*
X289500Y333381D02*
D03*
X268500Y322079D02*
D03*
Y328079D02*
D03*
Y370079D02*
D03*
Y304079D02*
D03*
Y352079D02*
D03*
Y358079D02*
D03*
Y310079D02*
D03*
Y316079D02*
D03*
Y340079D02*
D03*
Y421079D02*
D03*
Y397079D02*
D03*
Y391079D02*
D03*
Y439079D02*
D03*
Y433079D02*
D03*
X289102Y425681D02*
D03*
X268500Y385079D02*
D03*
Y451079D02*
D03*
X278850Y381429D02*
D03*
X268500Y409079D02*
D03*
Y403079D02*
D03*
X284000Y179079D02*
D03*
X140000Y363579D02*
D03*
X143000Y361579D02*
D03*
X115500Y371579D02*
D03*
Y377579D02*
D03*
X230500Y355500D02*
D03*
X223390Y344468D02*
D03*
X229000Y315000D02*
D03*
X189000Y271500D02*
D03*
X99650Y182500D02*
D03*
X134500Y173500D02*
D03*
X120000Y172000D02*
D03*
X119972Y143500D02*
D03*
X288000Y171079D02*
D03*
X282000Y262500D02*
D03*
Y272579D02*
D03*
X152000Y363579D02*
D03*
D186*
X148500Y150079D02*
D03*
Y147579D02*
D03*
X124500Y495079D02*
D03*
Y498579D02*
D03*
X110500Y495079D02*
D03*
X114000Y506579D02*
D03*
Y502579D02*
D03*
X121000Y498579D02*
D03*
X117500D02*
D03*
X121000Y495079D02*
D03*
X117500D02*
D03*
X114000D02*
D03*
Y498579D02*
D03*
X100500Y564079D02*
D03*
X340500Y172679D02*
D03*
Y357279D02*
D03*
Y264979D02*
D03*
X340000Y230979D02*
D03*
Y138679D02*
D03*
Y323279D02*
D03*
X324000Y180579D02*
D03*
X327500D02*
D03*
X331000D02*
D03*
X319500Y176579D02*
D03*
X331480Y166630D02*
D03*
X324000Y272579D02*
D03*
X327500D02*
D03*
X331000D02*
D03*
X319500Y268579D02*
D03*
X331480Y258629D02*
D03*
X324000Y365079D02*
D03*
X327500D02*
D03*
X331000D02*
D03*
X319500Y361079D02*
D03*
X331480Y351130D02*
D03*
Y443129D02*
D03*
X319500Y453079D02*
D03*
X331000Y457079D02*
D03*
X327500D02*
D03*
X324000D02*
D03*
X198862Y214717D02*
D03*
X194138D02*
D03*
X198862Y219441D02*
D03*
X194138D02*
D03*
X340500Y449579D02*
D03*
X302000Y456079D02*
D03*
X340000Y415579D02*
D03*
X78185Y553079D02*
D03*
X78685Y476079D02*
D03*
X191500Y567079D02*
D03*
X203500D02*
D03*
X168000Y547579D02*
D03*
X208500Y552579D02*
D03*
X183000Y547579D02*
D03*
X132000Y547079D02*
D03*
X136000D02*
D03*
X140000D02*
D03*
X128000D02*
D03*
X130000Y543579D02*
D03*
X134000D02*
D03*
X138000D02*
D03*
X110500Y506579D02*
D03*
Y502579D02*
D03*
Y498579D02*
D03*
X87500Y569079D02*
D03*
X90000D02*
D03*
X92500D02*
D03*
Y492079D02*
D03*
X90000D02*
D03*
X87500D02*
D03*
X100500Y487079D02*
D03*
X84000Y492000D02*
D03*
M02*
